<?xml version="1.0" standalone="no"?>
<!DOCTYPE svg PUBLIC "-//W3C//DTD SVG 20010904//EN"
 "http://www.w3.org/TR/2001/REC-SVG-20010904/DTD/svg10.dtd">
<svg version="1.0" xmlns="http://www.w3.org/2000/svg"
 width="700.000000pt" height="700.000000pt" viewBox="0 0 700.000000 700.000000"
 preserveAspectRatio="xMidYMid meet">
<metadata>
Created by potrace 1.14, written by Peter Selinger 2001-2017
</metadata>
<g transform="translate(0.000000,700.000000) scale(0.100000,-0.100000)"
fill="#000000" stroke="none">
<path d="M2850 6408 c-128 -33 -209 -131 -225 -268 -2 -25 -7 -65 -10 -90 -7
-58 -13 -112 -20 -180 -6 -57 -12 -109 -20 -170 -2 -19 -7 -64 -10 -100 -4
-36 -8 -78 -11 -95 -2 -16 -6 -50 -8 -75 -3 -25 -7 -65 -10 -90 -10 -81 -17
-144 -22 -190 -8 -95 -20 -200 -29 -257 -3 -18 -11 -102 -20 -195 -1 -10 -4
-21 -8 -24 -4 -4 -309 -8 -679 -9 -713 -2 -704 -1 -773 -49 -47 -33 -76 -67
-101 -121 -71 -154 2 -329 166 -396 29 -12 144 -14 677 -14 421 0 643 -3 644
-10 2 -18 -12 -167 -16 -175 -2 -3 -6 -45 -10 -95 -3 -49 -8 -92 -10 -95 -2
-3 -6 -43 -10 -90 -4 -47 -8 -87 -10 -90 -1 -3 -6 -36 -9 -75 -4 -38 -9 -81
-11 -95 -2 -14 -6 -54 -9 -90 -4 -36 -8 -74 -10 -85 -2 -11 -9 -76 -16 -145
l-12 -125 -587 0 c-584 -1 -586 -1 -631 -23 -207 -101 -235 -370 -52 -502 74
-54 67 -53 642 -56 294 -1 541 -3 548 -3 9 -1 11 -15 7 -51 -3 -27 -7 -74 -10
-102 -3 -29 -7 -64 -10 -78 -2 -14 -6 -59 -10 -100 -3 -41 -8 -82 -10 -90 -2
-8 -6 -46 -10 -85 -3 -38 -8 -77 -10 -85 -2 -8 -7 -51 -10 -94 -4 -43 -8 -86
-10 -95 -1 -9 -6 -47 -10 -86 -3 -38 -8 -83 -11 -100 -2 -16 -6 -52 -9 -80 -5
-47 -8 -70 -19 -175 -3 -25 -9 -74 -13 -110 -20 -173 1 -260 80 -334 53 -49
108 -74 178 -79 163 -12 294 102 314 273 3 30 8 71 10 90 2 19 7 58 9 85 3 28
10 91 16 140 6 50 13 113 16 140 3 28 7 61 9 75 2 14 6 57 10 95 4 39 9 82 10
96 2 15 7 58 10 95 4 37 8 75 10 84 1 8 6 49 10 90 4 41 9 83 10 92 3 15 13
99 20 178 14 146 22 200 30 208 2 3 264 6 581 6 l575 1 -6 -70 c-3 -38 -8 -77
-10 -85 -2 -8 -7 -44 -10 -80 -3 -36 -8 -81 -10 -100 -2 -19 -7 -60 -10 -90
-9 -87 -15 -142 -21 -181 -3 -20 -7 -61 -9 -90 -2 -30 -7 -70 -9 -89 -3 -19
-8 -57 -11 -85 -3 -27 -7 -68 -10 -90 -7 -65 -25 -226 -30 -275 -3 -25 -8 -70
-12 -100 -13 -108 -8 -192 14 -241 48 -107 146 -171 261 -173 162 -2 280 108
297 277 3 23 7 65 10 92 9 77 13 115 20 175 10 90 15 133 20 170 2 19 7 60 10
90 6 58 14 132 20 190 2 19 7 60 10 90 4 30 8 69 10 85 7 59 16 141 20 180 2
22 6 60 9 85 3 25 8 65 10 90 19 186 23 210 30 218 3 3 308 6 678 7 537 1 680
4 708 15 119 46 193 151 193 275 0 93 -50 190 -121 238 -80 52 -71 52 -752 53
-349 1 -639 3 -643 3 -5 1 -6 9 -3 19 2 9 7 44 11 77 3 33 8 78 11 100 2 22 6
56 8 75 3 19 7 62 11 95 3 33 8 74 10 90 2 17 11 100 21 185 9 85 17 164 18
175 9 82 19 165 22 190 2 17 6 57 10 90 4 33 8 62 10 64 3 3 262 5 577 6 613
0 610 0 688 52 38 25 99 102 99 125 0 8 5 19 10 24 6 6 11 42 12 81 2 125 -72
237 -184 279 -50 18 -85 19 -578 21 -289 1 -533 2 -543 2 -17 1 -18 7 -12 64
3 34 8 73 10 87 2 14 11 93 20 175 15 144 20 189 30 265 2 19 7 62 10 95 3 33
8 74 10 90 3 17 7 57 10 89 3 33 7 71 9 85 3 14 7 58 11 96 3 39 8 79 10 90 2
11 7 49 10 85 3 36 10 94 14 130 24 187 -26 304 -158 367 -72 34 -172 36 -242
4 -91 -41 -162 -141 -173 -241 -8 -70 -37 -331 -41 -370 -10 -80 -15 -128 -20
-180 -3 -30 -8 -71 -10 -90 -3 -19 -12 -102 -21 -185 -8 -82 -17 -165 -20
-183 -2 -18 -6 -56 -9 -85 -3 -28 -12 -112 -21 -185 -9 -73 -17 -146 -18 -162
-1 -16 -5 -33 -9 -36 -4 -4 -266 -8 -583 -8 l-576 -1 7 65 c3 36 8 76 10 90 2
14 6 57 10 95 4 39 8 77 10 85 1 8 6 47 10 85 4 39 9 81 10 95 2 14 6 53 10
87 3 34 7 70 9 80 2 10 7 54 10 98 4 44 9 87 11 95 3 14 7 48 20 180 3 30 7
71 10 90 2 19 7 58 10 85 3 28 7 70 10 95 20 168 14 216 -35 294 -63 99 -199
153 -310 124z m1291 -2331 c3 -4 2 -33 -2 -65 -4 -31 -10 -84 -14 -117 -12
-118 -15 -141 -20 -185 -6 -52 -12 -102 -20 -180 -3 -30 -10 -93 -15 -140 -6
-47 -13 -107 -15 -135 -3 -27 -8 -66 -10 -85 -3 -19 -7 -55 -9 -80 -3 -25 -8
-72 -11 -105 -4 -33 -9 -62 -11 -64 -5 -6 -1134 -8 -1151 -3 -7 2 -11 7 -9 11
2 3 7 38 10 76 4 39 8 81 10 95 3 14 7 57 11 95 3 39 8 81 10 95 2 14 7 52 10
85 3 33 10 98 16 145 10 96 17 157 23 215 14 131 19 172 21 185 1 8 6 47 10
87 5 54 11 73 23 75 36 7 1137 2 1143 -5z"/>
</g>
</svg>
